<?xml version="1.0" encoding="UTF-8"?>
<!DOCTYPE svg PUBLIC "-//W3C//DTD SVG 1.1//EN" "http://www.w3.org/Graphics/SVG/1.1/DTD/svg11.dtd">
<!-- Creator: CorelDRAW -->
<svg xmlns="http://www.w3.org/2000/svg" xml:space="preserve" width="50.8mm" height="33.8666mm" style="shape-rendering:geometricPrecision; text-rendering:geometricPrecision; image-rendering:optimizeQuality; fill-rule:evenodd; clip-rule:evenodd"
viewBox="0 0 50.8 33.8666"
 xmlns:xlink="http://www.w3.org/1999/xlink">
 <defs>
  <style type="text/css">
   <![CDATA[
    .str0 {stroke:white;stroke-width:1;stroke-linecap:round}
    .fil1 {fill:none}
    .fil0 {fill:white;fill-rule:nonzero}
   ]]>
  </style>
 </defs>
 <g id="Camada_x0020_1">
  <metadata id="CorelCorpID_0Corel-Layer"/>
  <g id="_101056608">
   <path id="_101056704" class="fil0" d="M8.1576 26.5545m4.5645 -14.6235c0.8157,-0.074 1.5284,0.0411 2.1209,0.3342 0.5892,0.2915 1.0878,0.6935 1.4713,1.2205 0.3773,0.5186 0.6382,1.1294 0.802,1.8331 0.1621,0.696 0.2173,1.4314 0.158,2.2085 -0.059,0.7757 -0.2332,1.567 -0.518,2.3742 -0.2872,0.8142 -0.7043,1.5928 -1.2571,2.3454 -0.5587,0.76 -1.2477,1.4625 -2.1134,2.1107 -0.8743,0.6548 -1.919,1.2106 -3.1488,1.6536 -0.0077,0.1573 -0.0245,0.3061 -0.0633,0.4497 -0.0391,0.1447 -0.1222,0.2345 -0.2428,0.2628 -0.0883,0.0205 -0.2403,0.0062 -0.4812,-0.0403 -0.2452,-0.047 -0.4772,-0.121 -0.7141,-0.2213 -0.4354,0.1084 -0.8051,0.1327 -1.1169,0.0716 -0.3036,-0.0595 -0.5673,-0.1484 -0.7682,-0.2695 -0.1974,-0.1198 -0.3226,-0.2412 -0.3726,-0.3627 -0.0498,-0.1216 -0.0278,-0.1937 0.0651,-0.2158 0.129,-0.0305 0.2447,-0.0414 0.3425,-0.035 0.0937,0.0062 0.1918,0.0206 0.2811,0.0386 0.0935,0.0192 0.1872,0.0315 0.2984,0.0343 0.1026,0.0024 0.2359,-0.0153 0.396,-0.0531 0.0263,-0.0062 0.0411,-0.0095 0.0578,-0.0204 0.0144,-0.0092 0.0355,-0.0181 0.0531,-0.0222 0.0475,-0.1914 0.1404,-0.54 0.2812,-1.0427 0.1405,-0.5014 0.3134,-1.0921 0.5114,-1.7716 0.1966,-0.6753 0.4179,-1.4243 0.6594,-2.2363 0.2402,-0.8084 0.4541,-1.6223 0.6578,-2.4421 0.2021,-0.812 0.3927,-1.6096 0.5607,-2.3918 0.1675,-0.7797 0.2917,-1.4931 0.3847,-2.1403 -0.5677,0.3801 -1.1198,0.8478 -1.6744,1.3973 -0.5644,0.5594 -1.0676,1.1588 -1.4834,1.804 -0.4158,0.6458 -0.7452,1.3154 -0.9861,2.0036 -0.2425,0.6928 -0.3233,1.3428 -0.2425,1.9535 0.0331,0.2498 0.0794,0.4358 0.1382,0.5637 0.059,0.1278 0.1089,0.2251 0.1584,0.2911 0.0495,0.0657 0.098,0.1187 0.1438,0.1551 0.0482,0.0386 0.0705,0.0907 0.0813,0.1565 0.0266,0.1577 -0.0781,0.2283 -0.301,0.2138 -0.2224,-0.014 -0.481,-0.1191 -0.7688,-0.3146 -0.2901,-0.1971 -0.5681,-0.4966 -0.8407,-0.9047 -0.2733,-0.4098 -0.4464,-0.9418 -0.5254,-1.5858 -0.0356,-0.289 0.0007,-0.6435 0.1293,-1.0587 0.1271,-0.4111 0.3257,-0.8503 0.5994,-1.3174 0.2713,-0.4629 0.6011,-0.9381 1.0045,-1.417 0.4,-0.4752 0.8504,-0.9242 1.3353,-1.3425 0.4891,-0.4217 1.0206,-0.7925 1.5872,-1.1322 0.5561,-0.3335 1.1322,-0.6 1.7372,-0.8002 -0.0007,-0.0862 -0.0036,-0.175 -0.0064,-0.2617 -0.0028,-0.0886 -0.0129,-0.1753 -0.0244,-0.2625 -0.0217,-0.1644 0.024,-0.2751 0.1223,-0.3261 0.1016,-0.0524 0.2356,-0.0609 0.3923,-0.03 0.1648,0.0323 0.3364,0.0963 0.5143,0.2033 0.1715,0.103 0.3227,0.2238 0.4577,0.353 0.0488,-0.0045 0.098,-0.009 0.1469,-0.0136zm-2.0039 12.4058c0.7091,-0.4325 1.3515,-0.9497 1.9121,-1.5345 0.5618,-0.5857 1.0673,-1.1942 1.4918,-1.8461 0.4165,-0.6397 0.7519,-1.3013 1.0326,-1.9763 0.2798,-0.6728 0.4865,-1.3176 0.6187,-1.9433 0.1305,-0.619 0.1763,-1.2083 0.1481,-1.7587 -0.0289,-0.5568 -0.1407,-1.0303 -0.3358,-1.4283 -0.1983,-0.405 -0.4832,-0.7105 -0.8583,-0.9244 -0.3768,-0.2148 -0.8671,-0.2941 -1.4688,-0.2362 -0.031,0.0032 -0.0445,0.002 -0.0312,0.0013 0.0086,-0.0004 0.0223,-0.0016 0.0358,-0.0032 0.0133,-0.0015 0.022,-0.0023 0.0309,-0.0034 0.0043,-0.0006 -0.0089,0.0019 -0.0355,0.0053 -0.0342,0.2073 -0.1143,0.5795 -0.2326,1.1127 -0.1187,0.5357 -0.2565,1.1637 -0.4182,1.8817 -0.1617,0.7195 -0.3279,1.4979 -0.5084,2.3278 -0.1811,0.8333 -0.3754,1.6494 -0.5514,2.4466 -0.1769,0.8007 -0.3362,1.5422 -0.4863,2.2274 -0.151,0.6897 -0.262,1.2392 -0.3435,1.6516zm7.5546 -0.267m5.2871 -6.1607c0.047,-0.1111 0.0881,-0.1555 0.1241,-0.1361 0.0399,0.0214 0.0696,0.0669 0.09,0.1378 0.0206,0.0719 0.0412,0.1545 0.0462,0.2477 0.0047,0.093 -0.005,0.1521 -0.0212,0.1871 -0.1074,0.2326 -0.2404,0.5342 -0.4046,0.8962 -0.1655,0.3653 -0.3734,0.7284 -0.6124,1.0993 -0.2373,0.3679 -0.499,0.7234 -0.8041,1.0475 -0.3143,0.3337 -0.6688,0.5679 -1.0554,0.7141 -0.2329,0.4733 -0.5002,0.8891 -0.807,1.2343 -0.3121,0.3516 -0.6506,0.5741 -1.006,0.6625 -0.3022,0.075 -0.5775,0.0596 -0.824,-0.0375 -0.2581,-0.1018 -0.4876,-0.2503 -0.6799,-0.4446 -0.198,-0.2005 -0.3458,-0.4241 -0.4589,-0.6812 -0.1132,-0.2573 -0.1695,-0.5012 -0.179,-0.7362 -0.0066,-0.1696 0.0106,-0.3726 0.0581,-0.6035 0.0473,-0.2304 0.1158,-0.4752 0.1999,-0.7231 0.086,-0.2534 0.179,-0.508 0.2798,-0.7623 0.1005,-0.254 0.2061,-0.4844 0.316,-0.6993 0.0329,-0.3923 0.1278,-0.7781 0.2726,-1.1576 0.1439,-0.3764 0.3185,-0.7178 0.5279,-1.0182 0.21,-0.3015 0.4387,-0.546 0.6946,-0.7396 0.2539,-0.1918 0.4979,-0.3057 0.7511,-0.343 0.2718,-0.0402 0.5097,0.0036 0.7318,0.1386 0.2164,0.1317 0.4076,0.3142 0.5653,0.5413 0.157,0.2264 0.2833,0.4827 0.3747,0.7667 0.0903,0.2814 0.1406,0.5535 0.1478,0.8144 0.0099,0.3624 -0.0331,0.793 -0.1344,1.2954 -0.1017,0.505 -0.2431,1.0169 -0.4312,1.5435 0.2217,-0.1456 0.4476,-0.3389 0.6688,-0.5928 0.2123,-0.2438 0.4096,-0.5184 0.6009,-0.8148 0.1927,-0.2989 0.3687,-0.6022 0.5377,-0.9213 0.1656,-0.3126 0.3065,-0.6191 0.4308,-0.9153zm-3.4749 -1.2516c-0.1379,0.0217 -0.2865,0.0783 -0.4311,0.1773 -0.1394,0.0956 -0.2772,0.2223 -0.412,0.367 -0.1391,0.1491 -0.2661,0.3196 -0.3842,0.513 -0.1198,0.196 -0.2244,0.4066 -0.3122,0.6321 0.0981,-0.0053 0.2093,0.0066 0.3567,0.036 0.1472,0.0294 0.2854,0.0742 0.4287,0.1321 0.1469,0.0595 0.2667,0.1384 0.3669,0.2336 0.1014,0.096 0.1543,0.207 0.1582,0.3339 0.002,0.0695 -0.023,0.1704 -0.0691,0.3023 -0.0457,0.1303 -0.0973,0.2893 -0.1662,0.4639 -0.0713,0.1797 -0.1541,0.3722 -0.2459,0.5793 -0.0925,0.2098 -0.1844,0.414 -0.2762,0.6245 0.2818,0.171 0.5763,0.2819 0.8841,0.3334 0.1093,-0.2814 0.2128,-0.5751 0.2968,-0.8808 0.0854,-0.3096 0.1524,-0.6072 0.2081,-0.8927 0.0562,-0.2867 0.0987,-0.5501 0.1285,-0.7973 0.0293,-0.2439 0.0468,-0.456 0.0404,-0.6321 -0.0209,-0.5832 -0.0672,-0.9923 -0.1418,-1.224 -0.0754,-0.2348 -0.216,-0.3348 -0.4297,-0.3015zm-1.3602 6.4612c0.1689,-0.0404 0.3247,-0.1461 0.4745,-0.3148 0.1505,-0.1698 0.2871,-0.3799 0.4279,-0.6279 -0.3124,-0.0799 -0.5893,-0.2168 -0.8312,-0.4116 -0.07,0.1944 -0.137,0.3819 -0.1921,0.5615 -0.0538,0.1749 -0.0848,0.3268 -0.0994,0.4524 -0.0146,0.1249 -0.0141,0.2191 0.0195,0.2817 0.034,0.0625 0.1033,0.082 0.2008,0.0587zm5.2383 -0.4477m5.4337 -5.7412c0.043,-0.1126 0.0832,-0.1568 0.1152,-0.1386 0.0351,0.0203 0.0674,0.0673 0.09,0.1405 0.0226,0.0748 0.0363,0.1555 0.0413,0.2467 0.0049,0.0894 0.001,0.1489 -0.0081,0.1758 -0.0479,0.1413 -0.1236,0.3384 -0.2199,0.6004 -0.097,0.2639 -0.2115,0.555 -0.3386,0.8731 -0.1279,0.3204 -0.2695,0.6539 -0.4179,0.9967 -0.1509,0.3491 -0.3112,0.6695 -0.4759,0.9672 -0.1663,0.3009 -0.3327,0.5599 -0.5035,0.7851 -0.1694,0.2234 -0.3317,0.3656 -0.4785,0.4477 -0.0581,0.0325 -0.142,0.0536 -0.2759,0.0414 -0.1336,-0.0125 -0.2769,-0.0536 -0.4148,-0.1287 -0.1389,-0.0755 -0.2689,-0.1854 -0.3802,-0.3329 -0.1083,-0.1434 -0.1657,-0.3322 -0.1769,-0.5582 -0.0088,-0.171 0.0132,-0.4218 0.0757,-0.7549 0.0626,-0.3313 0.1276,-0.6981 0.2121,-1.0971 0.0845,-0.399 0.1781,-0.8138 0.2782,-1.2444 0.0999,-0.4299 0.1825,-0.8376 0.265,-1.2198 -0.1148,0.1997 -0.2528,0.453 -0.4102,0.7511 -0.1601,0.3028 -0.3271,0.6243 -0.5023,0.9669 -0.1772,0.3452 -0.3534,0.7031 -0.533,1.0655 -0.1812,0.3649 -0.3584,0.715 -0.5155,1.0436 -0.1597,0.3348 -0.2994,0.632 -0.4087,0.8987 -0.11,0.2692 -0.1797,0.4764 -0.2188,0.6265 0.0008,0.12 0.017,0.216 0.0373,0.285 0.0206,0.0702 0.012,0.1369 -0.0344,0.2046 -0.0375,0.0543 -0.1242,0.0802 -0.2667,0.0791 -0.1424,-0.0015 -0.3037,-0.0355 -0.4682,-0.1114 -0.1568,-0.0724 -0.3073,-0.1888 -0.4385,-0.3413 -0.1334,-0.1551 -0.2026,-0.3574 -0.2175,-0.6123 -0.01,-0.1692 0.0066,-0.4012 0.0624,-0.6985 0.0562,-0.299 0.1256,-0.628 0.2121,-0.9848 0.0874,-0.3597 0.1798,-0.7385 0.2782,-1.1365 0.0973,-0.3944 0.1888,-0.7742 0.2694,-1.1394 0.0797,-0.362 0.1496,-0.694 0.1991,-0.9984 0.0493,-0.3052 0.0747,-0.5506 0.0668,-0.7369 -0.0074,-0.1691 0.0474,-0.2591 0.1857,-0.2696 0.1336,-0.0101 0.2759,0.0286 0.4373,0.1163 0.1606,0.0874 0.3095,0.1971 0.4433,0.3408 0.1308,0.1402 0.2056,0.2798 0.2121,0.4172 0.0036,0.0838 -0.0186,0.2366 -0.0509,0.459 -0.0319,0.2197 -0.0775,0.4829 -0.1337,0.7848 -0.056,0.3022 -0.1231,0.6307 -0.1945,0.9878 -0.0714,0.3569 -0.143,0.7094 -0.2077,1.0593 0.0835,-0.1948 0.1855,-0.4342 0.3165,-0.713 0.1332,-0.283 0.2736,-0.581 0.4227,-0.8975 0.1499,-0.3182 0.2969,-0.6411 0.4577,-0.9673 0.1607,-0.3256 0.3123,-0.6249 0.4629,-0.9065 0.1491,-0.2792 0.2922,-0.5207 0.4238,-0.7249 0.1331,-0.2062 0.2476,-0.3516 0.3407,-0.4383 0.0134,-0.0205 0.0379,-0.0393 0.0755,-0.0663 0.0114,-0.008 0.027,-0.0157 0.049,-0.0199 0.0356,-0.0063 0.0668,-0.0067 0.0802,0.0007 0.0848,0.0045 0.1738,0.0359 0.2813,0.0916 0.1068,0.0553 0.2083,0.1257 0.2998,0.2067 0.0964,0.0855 0.1748,0.1737 0.2378,0.2692 0.0627,0.0954 0.0991,0.1925 0.0995,0.2895 0.0003,0.0787 -0.01,0.224 -0.0423,0.4326 -0.0323,0.2097 -0.0709,0.4607 -0.1208,0.7594 -0.0493,0.2961 -0.108,0.619 -0.173,0.9641 -0.0649,0.3455 -0.1233,0.6942 -0.1859,1.0396 -0.063,0.347 -0.1232,0.6783 -0.1817,0.9968 -0.0581,0.3162 -0.1112,0.5855 -0.1382,0.8093 -0.0241,0.201 0.0111,0.295 0.095,0.2749 0.1071,-0.0255 0.2416,-0.2047 0.4204,-0.5294 0.1783,-0.3239 0.3673,-0.7078 0.5638,-1.153 0.1952,-0.4413 0.3823,-0.8961 0.5632,-1.3686 0.1793,-0.4673 0.3331,-0.8698 0.4617,-1.2068zm0.3516 4.3191m4.569 -5.2399c0.0354,-0.1037 0.0669,-0.1475 0.0976,-0.1272 0.027,0.0177 0.0512,0.0627 0.0718,0.1314 0.0201,0.0676 0.0319,0.1448 0.0367,0.228 0.0047,0.0848 0.0051,0.1399 -0.0038,0.1649 -0.0483,0.1371 -0.1103,0.3248 -0.1938,0.5632 -0.0838,0.239 -0.1742,0.5032 -0.282,0.7922 -0.1081,0.2899 -0.2312,0.5906 -0.3615,0.9005 -0.13,0.3091 -0.2649,0.6016 -0.4061,0.8709 -0.1416,0.2702 -0.2807,0.5041 -0.42,0.6927 -0.1438,0.1946 -0.2825,0.3201 -0.417,0.376 -0.0168,0.007 -0.0358,0.0081 -0.0532,0.0124 -0.0448,0.0107 -0.1337,0.0192 -0.2494,0.0236 -0.1202,0.0044 -0.2493,-0.0136 -0.3788,-0.0521 -0.1334,-0.0398 -0.249,-0.1153 -0.3483,-0.2249 -0.1022,-0.1124 -0.1547,-0.2799 -0.1628,-0.5051 -0.0022,-0.0593 -0.0006,-0.1243 0.0035,-0.1929 0.0044,-0.0686 0.0084,-0.1493 0.0211,-0.2445 -0.0924,0.2154 -0.1849,0.4209 -0.2776,0.6162 -0.0924,0.1943 -0.1789,0.3705 -0.2647,0.527 -0.0864,0.1574 -0.1675,0.2863 -0.243,0.3854 -0.0747,0.0984 -0.142,0.1547 -0.1953,0.168 -0.1246,0.0307 -0.2711,0.0267 -0.4365,-0.0067 -0.1778,-0.0363 -0.3444,-0.1044 -0.504,-0.2112 -0.1578,-0.1055 -0.2903,-0.2479 -0.4032,-0.4227 -0.1118,-0.174 -0.1748,-0.3841 -0.1812,-0.6269 -0.0045,-0.1668 0.0246,-0.409 0.0764,-0.7262 0.0516,-0.317 0.1189,-0.668 0.2083,-1.0535 0.0891,-0.3834 0.1875,-0.7727 0.3058,-1.1694 0.1183,-0.3955 0.2433,-0.7566 0.3778,-1.0873 0.1339,-0.328 0.26,-0.5995 0.3884,-0.8136 0.1279,-0.2137 0.2568,-0.3315 0.3815,-0.3499 0.165,-0.0242 0.3211,-0.012 0.4683,0.0375 0.1475,0.05 0.2865,0.1196 0.4158,0.2109 0.1255,0.0885 0.2387,0.1898 0.3448,0.3036 0.1043,0.112 0.1927,0.2232 0.2644,0.3274 0.0873,-0.4078 0.1302,-0.6734 0.1259,-0.7976 -0.0057,-0.1507 0.0434,-0.2281 0.1503,-0.2356 0.107,-0.0076 0.2271,0.029 0.3482,0.1076 0.1248,0.0814 0.2431,0.1828 0.3448,0.3115 0.0997,0.1262 0.1525,0.2522 0.1575,0.3745 0.0046,0.1073 -0.0163,0.332 -0.0682,0.6741 -0.052,0.3427 -0.1107,0.7304 -0.182,1.1639 -0.0718,0.4352 -0.1412,0.8783 -0.2125,1.3243 -0.0714,0.446 -0.1424,0.8193 -0.1821,1.1211 -0.0292,0.2212 -0.003,0.3232 0.0771,0.3046 0.0621,-0.0142 0.1383,-0.0921 0.226,-0.2313 0.0892,-0.1417 0.1839,-0.3245 0.2918,-0.5456 0.1084,-0.2226 0.2204,-0.4679 0.3398,-0.7392 0.1186,-0.2701 0.2294,-0.5462 0.3393,-0.8294 0.1102,-0.2838 0.2152,-0.5539 0.3131,-0.8188 0.0958,-0.2594 0.1807,-0.4957 0.251,-0.7018zm-4.0837 4.335c0.0577,-0.013 0.1242,-0.0938 0.208,-0.2409 0.084,-0.1471 0.1766,-0.3385 0.278,-0.5702 0.1009,-0.2312 0.203,-0.4845 0.308,-0.7602 0.1061,-0.2784 0.2088,-0.5517 0.3081,-0.8269 0.0985,-0.273 0.1823,-0.5302 0.2636,-0.7732 0.0808,-0.2409 0.1544,-0.44 0.1979,-0.6049 0.031,-0.1179 0.0369,-0.2353 0.0607,-0.3442 0.0241,-0.11 0.0482,-0.2152 0.0699,-0.3195 -0.0806,-0.0377 -0.1653,-0.0694 -0.259,-0.0948 -0.098,-0.0265 -0.2051,-0.0271 -0.321,-0.0069 -0.0844,0.0147 -0.1822,0.1369 -0.2924,0.3673 -0.1103,0.2309 -0.2161,0.5172 -0.3211,0.8555 -0.1055,0.3393 -0.204,0.7059 -0.2934,1.1006 -0.0894,0.3946 -0.1525,0.761 -0.2083,1.0931 -0.0564,0.3347 -0.0908,0.6098 -0.0939,0.8253 -0.0035,0.2156 0.028,0.3148 0.0949,0.2999zm6.4988 -0.8124m3.7193 -4.6366c0.0323,-0.0926 0.0531,-0.1314 0.0801,-0.1137 0.0265,0.0178 0.0448,0.0581 0.0583,0.1201 0.0136,0.0636 0.0205,0.1333 0.0273,0.2085 0.007,0.0756 0.0073,0.1243 0.0004,0.1476 -0.0373,0.1225 -0.0906,0.2911 -0.1592,0.506 -0.0681,0.2141 -0.1456,0.4501 -0.2386,0.7131 -0.0925,0.2611 -0.1901,0.529 -0.2965,0.8071 -0.1059,0.2777 -0.2143,0.5355 -0.3319,0.7783 -0.1171,0.2415 -0.2301,0.4496 -0.3456,0.6184 -0.1148,0.1679 -0.2294,0.2806 -0.3331,0.3265 -0.0165,0.0073 -0.0357,0.0077 -0.0534,0.0122 -0.0356,0.0091 -0.1026,0.0149 -0.1959,0.0155 -0.0981,0.0006 -0.2013,-0.0157 -0.3122,-0.055 -0.1028,-0.0364 -0.2019,-0.1075 -0.2854,-0.2097 -0.082,-0.1003 -0.1315,-0.2551 -0.1351,-0.4584 -0.0019,-0.0993 0.0168,-0.2354 0.0342,-0.4077 -0.0707,0.1918 -0.1419,0.3779 -0.2163,0.555 -0.0756,0.1793 -0.1529,0.3374 -0.2212,0.4764 -0.0686,0.1399 -0.1359,0.2547 -0.1993,0.3416 -0.065,0.0894 -0.1155,0.1366 -0.1643,0.1485 -0.0981,0.024 -0.2225,0.0194 -0.3607,-0.0171 -0.1337,-0.0354 -0.2676,-0.1033 -0.3927,-0.2014 -0.1251,-0.0981 -0.2354,-0.228 -0.3266,-0.3861 -0.0925,-0.161 -0.1385,-0.3502 -0.1445,-0.5696 -0.0042,-0.1481 0.012,-0.3652 0.0555,-0.6482 0.0433,-0.2839 0.0997,-0.5973 0.17,-0.9429 0.0696,-0.3412 0.1558,-0.6924 0.2504,-1.0442 0.0944,-0.3518 0.1948,-0.6771 0.304,-0.9719 0.1073,-0.29 0.2155,-0.5327 0.3228,-0.7251 0.1053,-0.1883 0.2088,-0.2936 0.3112,-0.3091 0.1202,-0.0181 0.2363,-0.0058 0.3478,0.0344 0.1118,0.0402 0.2149,0.0938 0.3128,0.162 0.0987,0.0686 0.1878,0.1521 0.2684,0.2483 0.0805,0.0962 0.1567,0.1889 0.2239,0.2764 0.109,-0.7562 0.2003,-1.52 0.2737,-2.2855 0.0734,-0.7649 0.1014,-1.4622 0.0918,-2.0929 -0.0014,-0.0904 0.0255,-0.1454 0.0709,-0.1638 0.0528,-0.0213 0.1162,-0.0131 0.1964,0.0212 0.0806,0.0341 0.1621,0.0841 0.2549,0.1548 0.0906,0.0687 0.1794,0.1474 0.2554,0.2317 0.0762,0.085 0.1428,0.1728 0.1924,0.2653 0.0487,0.0901 0.0785,0.1713 0.0811,0.2449 0.0023,0.0668 -0.0239,0.2528 -0.061,0.561 -0.0369,0.3083 -0.0847,0.6854 -0.144,1.1343 -0.0587,0.4481 -0.1221,0.9419 -0.2006,1.4818 -0.0789,0.54 -0.1491,1.0731 -0.223,1.5953 -0.0744,0.5263 -0.1439,1.0188 -0.2093,1.4805 -0.0656,0.461 -0.1159,0.8309 -0.1483,1.1099 -0.0239,0.2069 0.0014,0.3029 0.0677,0.2871 0.0445,-0.0108 0.1097,-0.0776 0.1866,-0.206 0.0736,-0.123 0.1549,-0.2882 0.2437,-0.4864 0.0881,-0.1963 0.1786,-0.416 0.2743,-0.6593 0.0944,-0.241 0.1855,-0.4907 0.274,-0.7446 0.0883,-0.2529 0.1724,-0.4981 0.252,-0.733 0.0795,-0.2343 0.1519,-0.4451 0.2167,-0.6321zm-3.33 3.8361c0.04,-0.0094 0.0933,-0.0699 0.1552,-0.1811 0.0619,-0.1114 0.1319,-0.2511 0.2035,-0.4271 0.0694,-0.1711 0.143,-0.3664 0.2165,-0.5829 0.0722,-0.2133 0.1469,-0.4335 0.2201,-0.6593 0.0723,-0.223 0.141,-0.4434 0.2075,-0.6593 0.0658,-0.214 0.1405,-0.4021 0.1807,-0.5733 0.0346,-0.1461 0.0505,-0.3003 0.0699,-0.4553 0.0197,-0.1542 0.039,-0.3106 0.07,-0.4666 -0.0583,-0.0275 -0.1205,-0.0496 -0.1918,-0.0643 -0.0713,-0.0146 -0.1475,-0.0138 -0.2321,0.0005 -0.0668,0.0112 -0.1467,0.1188 -0.2308,0.3244 -0.0837,0.2063 -0.168,0.4621 -0.2513,0.7647 -0.0841,0.305 -0.165,0.6337 -0.2418,0.9877 -0.0766,0.3542 -0.138,0.6804 -0.1838,0.9792 -0.0456,0.2984 -0.065,0.5462 -0.0685,0.7399 -0.0036,0.1951 0.0232,0.2854 0.0767,0.2728zm3.6026 -0.1813m2.54 -4.22c0.0263,-0.0667 0.0487,-0.0937 0.0711,-0.0799 0.0221,0.0133 0.0402,0.0426 0.0536,0.0889 0.0135,0.0461 0.0247,0.0978 0.0315,0.1527 0.0066,0.0528 0.0032,0.0914 -0.0042,0.1132 -0.037,0.1092 -0.0954,0.2744 -0.173,0.4953 -0.0773,0.2201 -0.1669,0.4675 -0.2749,0.7351 -0.1091,0.2702 -0.2246,0.5484 -0.3595,0.8339 -0.1356,0.2877 -0.2751,0.5544 -0.4213,0.8043 -0.1463,0.25 -0.2987,0.4606 -0.453,0.6358 -0.1521,0.1726 -0.3064,0.2794 -0.4582,0.3156 -0.1109,0.0264 -0.2277,0.0078 -0.3564,-0.0583 -0.1256,-0.0647 -0.2451,-0.1607 -0.3616,-0.2836 -0.1157,-0.1225 -0.2128,-0.2587 -0.2906,-0.4079 -0.079,-0.1517 -0.1187,-0.2925 -0.1215,-0.4243 -0.0072,-0.328 0.0114,-0.662 0.0507,-1.0013 0.0391,-0.3365 0.0961,-0.6615 0.1711,-0.9728 0.0747,-0.3091 0.1591,-0.602 0.2563,-0.8774 0.0973,-0.2759 0.1963,-0.5142 0.3059,-0.7181 0.1076,-0.2003 0.2134,-0.3651 0.3244,-0.4901 0.1112,-0.1257 0.2093,-0.1941 0.3117,-0.2099 0.1161,-0.0178 0.2367,0.0158 0.3571,0.1058 0.1165,0.0872 0.2209,0.2044 0.313,0.3499 0.0913,0.1443 0.161,0.3047 0.2197,0.4786 0.0578,0.1726 0.0943,0.3323 0.099,0.4808 0.0049,0.1472 -0.0198,0.3336 -0.079,0.5579 -0.0601,0.2272 -0.1375,0.4482 -0.2394,0.6612 -0.1019,0.2138 -0.2149,0.405 -0.3464,0.5752 -0.1308,0.1693 -0.2667,0.2717 -0.4182,0.303 -0.0845,0.0176 -0.1603,0.0259 -0.2316,0.0226 -0.0712,-0.0037 -0.1336,-0.0163 -0.1917,-0.0408 -0.0306,0.2023 -0.0526,0.3897 -0.0655,0.562 -0.0128,0.174 -0.0192,0.3225 -0.0122,0.4479 0.0069,0.1242 0.0297,0.2217 0.0631,0.2898 0.0336,0.0686 0.0848,0.0933 0.1428,0.08 0.1379,-0.0324 0.2772,-0.1203 0.4181,-0.2642 0.1391,-0.1419 0.2713,-0.3183 0.4042,-0.5263 0.1334,-0.2083 0.26,-0.439 0.3862,-0.6911 0.1267,-0.2529 0.2435,-0.503 0.3505,-0.754 0.1059,-0.2474 0.2042,-0.4853 0.2929,-0.7081 0.0886,-0.2234 0.1687,-0.4147 0.2353,-0.5814zm-1.3794 -0.6053c-0.049,0.0079 -0.098,0.0615 -0.1514,0.1643 -0.0528,0.1018 -0.107,0.2406 -0.1683,0.4063 -0.0627,0.1689 -0.1222,0.3627 -0.1816,0.5809 -0.0598,0.2198 -0.1147,0.4451 -0.1677,0.6788 0.1648,-0.0963 0.3089,-0.2488 0.4224,-0.4574 0.1129,-0.2074 0.1998,-0.4135 0.2572,-0.6201 0.0574,-0.2073 0.0881,-0.3878 0.0878,-0.5408 -0.0002,-0.1526 -0.036,-0.2222 -0.0984,-0.212zm3.1853 3.7566m-0.6221 -1.7832c0.0162,0.2008 0.0717,0.3497 0.179,0.4486 0.1068,0.0987 0.2363,0.1591 0.3836,0.1797 0.1467,0.0206 0.3074,0.0074 0.4722,-0.0368 0.1647,-0.0445 0.3111,-0.1129 0.4454,-0.2003 0.1373,-0.0893 0.2491,-0.194 0.3339,-0.3148 0.0842,-0.1198 0.1242,-0.2486 0.1156,-0.3839 -0.0093,-0.1481 -0.0522,-0.2719 -0.1254,-0.368 -0.074,-0.0976 -0.1647,-0.1894 -0.272,-0.277 -0.1068,-0.0872 -0.2231,-0.179 -0.3481,-0.275 -0.1248,-0.0957 -0.2423,-0.2159 -0.3529,-0.3521 -0.1171,-0.1436 -0.219,-0.3152 -0.3039,-0.5229 -0.0851,-0.2085 -0.1389,-0.4694 -0.1618,-0.7834 -0.0223,-0.3072 -0.0167,-0.6242 0.0254,-0.9478 0.0419,-0.3224 0.1103,-0.6351 0.1952,-0.9405 0.0838,-0.3024 0.1868,-0.5888 0.3068,-0.8558 0.1204,-0.2677 0.2453,-0.5011 0.3789,-0.6999 0.134,-0.1999 0.274,-0.3557 0.4146,-0.4759 0.1359,-0.1159 0.2682,-0.1807 0.3932,-0.1918 0.1608,-0.0146 0.3049,0.028 0.4334,0.13 0.1217,0.0964 0.2278,0.2266 0.3129,0.3791 0.0848,0.1519 0.1563,0.3175 0.2059,0.4973 0.0488,0.1771 0.0807,0.3358 0.0895,0.4759 0.0089,0.1414 0.0092,0.3045 -0.0041,0.4923 -0.0133,0.1869 -0.0356,0.3825 -0.0666,0.5866 -0.031,0.2031 -0.0689,0.4027 -0.1156,0.6002 -0.0467,0.197 -0.0983,0.3739 -0.1559,0.5302 -0.0582,0.1577 -0.1202,0.2906 -0.183,0.395 -0.062,0.1037 -0.129,0.1618 -0.1959,0.1729 -0.0848,0.0139 -0.1654,-0.0059 -0.2366,-0.0629 -0.0715,-0.0575 -0.1311,-0.1212 -0.1741,-0.1936 -0.0421,-0.0708 -0.0647,-0.1412 -0.0716,-0.2108 -0.0064,-0.067 0.0133,-0.1048 0.0623,-0.1125 0.049,-0.0076 0.1091,-0.103 0.1784,-0.2867 0.0686,-0.182 0.1314,-0.4128 0.1912,-0.6833 0.0602,-0.2723 0.1069,-0.5644 0.1421,-0.8763 0.0354,-0.3127 0.038,-0.6083 0.0215,-0.8838 -0.0059,-0.104 -0.0268,-0.1804 -0.0625,-0.2293 -0.0356,-0.0486 -0.0804,-0.0701 -0.1297,-0.0658 -0.0758,0.007 -0.1575,0.0648 -0.2454,0.1768 -0.0859,0.1092 -0.1684,0.254 -0.2496,0.429 -0.0834,0.1791 -0.1653,0.3837 -0.2451,0.6175 -0.0804,0.2353 -0.1472,0.4757 -0.2001,0.7244 -0.0534,0.2505 -0.0908,0.5004 -0.1197,0.7508 -0.0285,0.2498 -0.0367,0.4815 -0.0214,0.691 0.0207,0.283 0.061,0.515 0.1213,0.6968 0.0605,0.1815 0.1346,0.3325 0.2146,0.453 0.0806,0.1213 0.1652,0.2292 0.2546,0.3202 0.0891,0.091 0.1737,0.1883 0.25,0.2914 0.0754,0.1019 0.1447,0.2211 0.201,0.3603 0.0553,0.1374 0.0901,0.3165 0.1073,0.5343 0.0233,0.2943 0.0025,0.5544 -0.0527,0.7815 -0.0557,0.2285 -0.1452,0.4248 -0.2625,0.5892 -0.1185,0.166 -0.258,0.3018 -0.4273,0.4094 -0.1689,0.1073 -0.3608,0.1865 -0.5657,0.2373 -0.1827,0.0455 -0.3652,0.0423 -0.5387,-0.0136 -0.1742,-0.0559 -0.3221,-0.1433 -0.4551,-0.2653 -0.1302,-0.1195 -0.2346,-0.2686 -0.3171,-0.4412 -0.0828,-0.1732 -0.1347,-0.3485 -0.1479,-0.5313 -0.0187,-0.2561 -0.0029,-0.4848 0.0433,-0.6824 0.0465,-0.1983 0.1052,-0.3548 0.1687,-0.4675 0.0651,-0.1155 0.1292,-0.1843 0.187,-0.2056 0.0578,-0.0216 0.0921,0.0068 0.0981,0.0886 0.0029,0.039 -0.0064,0.0777 -0.0221,0.1149 -0.0153,0.0368 -0.031,0.0854 -0.0488,0.1425 -0.0179,0.0587 -0.0377,0.1303 -0.0486,0.2135 -0.0112,0.0838 -0.0105,0.1938 0.0006,0.3276zm3.3928 1.1011m1.2874 -3.4839c0.0222,-0.0787 0.0412,-0.1109 0.058,-0.0933 0.0146,0.0149 0.0268,0.0499 0.0358,0.1041 0.0088,0.0544 0.0134,0.1149 0.0134,0.1791 0,0.0654 -0.0032,0.1066 -0.0088,0.1264 -0.0302,0.1033 -0.0647,0.2472 -0.1118,0.4284 -0.0465,0.1792 -0.1022,0.3802 -0.1692,0.6002 -0.0668,0.2182 -0.1385,0.4446 -0.2141,0.6765 -0.0757,0.2328 -0.1577,0.4501 -0.2404,0.6527 -0.0819,0.2005 -0.1651,0.3728 -0.2495,0.5124 -0.0846,0.1401 -0.1644,0.2321 -0.2406,0.2679 -0.0083,0.0038 -0.0219,0.0062 -0.0311,0.0083 -0.0267,0.0064 -0.0759,0.0086 -0.1427,0.0069 -0.0712,-0.0017 -0.1423,-0.021 -0.2183,-0.0563 -0.08,-0.0372 -0.1453,-0.0994 -0.205,-0.1875 -0.0607,-0.0895 -0.0929,-0.2198 -0.0983,-0.3928 -0.0036,-0.1147 0.0109,-0.2809 0.0352,-0.4983 0.0242,-0.2178 0.0573,-0.4614 0.0976,-0.7319 0.0397,-0.2661 0.082,-0.5428 0.1288,-0.8288 0.0464,-0.2834 0.0886,-0.5501 0.1289,-0.8022 0.0396,-0.2476 0.0713,-0.464 0.0979,-0.6483 0.0266,-0.1833 0.0371,-0.3064 0.0354,-0.3695 -0.0029,-0.1139 0.0268,-0.1725 0.0848,-0.1757 0.0626,-0.0035 0.1283,0.029 0.2009,0.093 0.0745,0.0656 0.143,0.1473 0.2054,0.2471 0.0627,0.1001 0.0981,0.1979 0.0981,0.2917 0,0.0561 -0.0064,0.1531 -0.0222,0.2934 -0.0151,0.1358 -0.0289,0.301 -0.0534,0.4915 -0.0243,0.1912 -0.0489,0.3979 -0.0799,0.6213 -0.0311,0.2241 -0.0602,0.4486 -0.089,0.6689 -0.0288,0.2212 -0.0577,0.4341 -0.0844,0.6413 -0.0265,0.2043 -0.0524,0.3814 -0.0667,0.5314 -0.0167,0.1744 0.0003,0.2583 0.0444,0.2478 0.0362,-0.0085 0.0825,-0.0651 0.1384,-0.17 0.0553,-0.104 0.1139,-0.2406 0.1781,-0.4055 0.0647,-0.166 0.1315,-0.3515 0.2005,-0.5541 0.0693,-0.2035 0.1379,-0.4103 0.2006,-0.6248 0.062,-0.2129 0.1246,-0.4189 0.1873,-0.6177 0.0622,-0.1985 0.1114,-0.3765 0.1559,-0.5336zm-0.7992 -1.854c-0.0578,0.0083 -0.1121,0.0011 -0.1694,-0.0233 -0.0543,-0.0231 -0.1065,-0.0627 -0.1522,-0.1119 -0.0481,-0.0521 -0.0846,-0.1125 -0.1159,-0.1864 -0.0309,-0.0728 -0.0476,-0.1492 -0.0493,-0.2324 -0.0026,-0.1266 0.0156,-0.2606 0.0492,-0.4024 0.0333,-0.1423 0.0783,-0.2728 0.1336,-0.3893 0.056,-0.1176 0.1187,-0.2173 0.1875,-0.2968 0.0698,-0.0809 0.1384,-0.1242 0.2054,-0.1311 0.1028,-0.0105 0.1827,0.0357 0.25,0.1389 0.0666,0.1015 0.1046,0.2532 0.1073,0.4518 0.0017,0.1006 -0.009,0.2163 -0.0265,0.3475 -0.018,0.1315 -0.0516,0.2561 -0.0894,0.3775 -0.0379,0.1215 -0.0864,0.2248 -0.1428,0.3129 -0.0552,0.0864 -0.1205,0.1356 -0.1875,0.145z"/>
   <path id="_101056632" class="fil1 str0" d="M19.5412 26.6272c8.0028,-5.6917 18.4308,-3.3888 27.2421,-7.9129"/>
  </g>
 </g>
</svg>
